<?xml version="1.0" encoding="UTF-8"?>
<svg id="Layer_2" data-name="Layer 2" xmlns="http://www.w3.org/2000/svg" viewBox="0 0 117.51 127.57">
  <defs>
    <style>
      .cls-1 {
        fill: #000;
        stroke-width: 0px;
      }
    </style>
  </defs>
  <g id="Icon_Name" data-name="Icon Name">
    <path class="cls-1" d="M116.97,45.66c-6.11,5.31-3.43,4.19-.84-2.67-.3-2.03-3.9,4.43-4.35,4.81,3.11-8.35,3.14-10.83-1.37-1.37,2.24-9.66.41-5.26-3.05,1.22.13-2.15,1.46-5.65,0-5.19-.9,2.63-1.95,5.22-3.82,7.33,1.47-10.33-.61-.52-4.27,2.14-3.97,2.88-3.37.28-5.65-.61-1.71-.67-4.47-.27-4.65-.69-.77-6.75,3.44-15.27,10.3-17.02.64-.16,8.49-.99,7.94-1.83-4.05-2.05-10.09-.81-10.99-1.07-.55-.16-2.79-3.79-10.53-3.36-11.58.64-8.97,11.41-18.31,15.26-3.92-2.26-16.66-14.68-19.08-15.57-3.98-1.46-1.29.77-.61,2.59-6.03-3.21-24.21-13.84-28.23-17.4-1.68-1.48-3.15-3.25-4.5-5.04-3.56-4.71-5.24-10.46-5.04-4.96.18,5,3.76,10.06,7.48,13.2,5.46,4.61,14.84,8.95,21.14,12.67-7.63-3.17-14.97-7.23-21.59-12.21C10.32,10.92,8.03,8.45,4.2.8q-.34.04-.69.08c.06,9.22,4.44,15.18,12.97,18.47C10.85,18.06,5.63,15.45.08,13.92q-.04.15-.08.31c1.49,3.87,3.65,5.53,7.4,7.02,7.6,3.02,26.91,7.01,35.79,9.08q-.04.11-.08.23c-11.14-2.06-22.26-4.54-33.12-7.78-3.04-.91-6.25-1.94-9.08-3.2-.02.01-.17-.03-.15.15,2.21,2.81.11,4.56,10.3,7.78,9.51,3,21.42,5.09,31.36,6.03-1.19.25-3.31.04-4.65-.08-11.55-1.01-22.72-4.46-33.95-7.1,1.24,8.53,24.74,10.06,31.51,10.15,3.39.04,11.76-.69,3.2.31-10.35.36-20.49-1.64-30.6-3.59.97,1.34,2.38,3.64,3.74,4.5,4.45,2.83,25.8,2.32,31.82.84-9.51,2.59-21.53,1.61-31.28.46-.21.33,2.37,3.42,2.82,3.74,4.37,3.11,22.24-.31,28-1.14-8.86,2.16-18.05,3.15-27.16,2.44,1.46,1.88,2.85,3.82,5.42,4.04,5.02.45,17.1-2.71,22.59-3.97-7.76,2.56-15.95,4.08-24.11,4.43.06.59,2.13,2.42,2.44,2.59,4.57,2.51,18.74-4.03,23.88-5.42-7.14,3.18-15.43,6.23-23.27,6.49,2.73,2.9,2.95,3.07,6.87,2.44,4.81-.77,13.28-5.15,18.16-7.02-6.56,3.6-13.72,6.85-21.21,7.63-.63.2,2.81,2.64,3.36,2.75,4.43.85,14.87-7.08,19.3-8.77-5.76,3.83-11.8,7.49-18.47,9.46,1.56,1.93,3.32,2.25,4.34,2.47,1.83-.63,4.45-1.64,7.43-3.23,4.42-2.36,7.76-5.01,7.86-4.88.05.07-.98,1.05-2.42,2.08-4.41,3.15-12.3,6.52-13.15,6.75-.04.01-.19.05-.23.15-.06.17.21.44.67.7,1.7.86,3.55,1.15,5.44,1.07,1.22-.38,4.51-2.1,11.64-6.4-1.88,1.24-3.38,2.29-4.39,3.01,0,0-5.33,3.81-7.38,3.82-.04.08-.05.15-.04.21.06.34.82.79,4.88.74,5.16-3.13,7.76-4.65,7.83-4.56.04.06-.94.76-2.92,2.11,0,0-2.94,2.2-4.56,2.68.18.51.72,1.58,5.75.76-5.95,20.08-7.84,32.33-26.63,44.33-3.45,2.21-8.23,3.21-6.49,6.64,1.57,3.09,5.58-.17,7.25-1.45,6.86-5.25,12.72-13.46,17.32-20.68-2.73,5.74-6.62,10.84-10.84,15.57-1.42,1.59-7.83,7.79-8.24,8.55-2.19,3.98,2.16,7.2,6.94,3.43,5.73-4.51,8.11-16.13,11.29-22.59-.95,5.18-7.9,20.78-7.1,24.95.52,2.68,5.53,3.98,7.94-.15,2.02-3.47,2.73-13.7,4.2-18.24q.11.11.23.23c-.29,3.55-2.87,15.75-2.14,18.31.94,3.31,8.15,4.03,7.63-2.44-.13-1.59-4.11-12.74-2.9-19.53q.19-.11.38-.23c-.07,4.13,1.24,19.12,5.95,20.45,3.37.95,5.55-1.47,5.11-4.96-.29-2.29-5.77-12.3-6.41-21.52-.36-5.23-.42-9.83,4.2-13.05.11.66,2.67,3.22,2.67,3.43,0,1.3-1.85,2.22-1.68,2.47.1.15.82-.13,1.56-.49,1.35-.65,2.1-.8,2.31-.66.38.25.23,1.55-1.66,5.63,5.32-3.57,3.31-9.95.92-9.31-.72.19-.59,1.89-2.29-1.37,6.74-1.62,4.84-4,13.05-1.75-3.18,1.39-1.12.77-1.98,3.43.8-1.22,1.21-2.48,3.05-2.14.58-.46,1.15-.63,1.45-.42.2.14.26.43.23.95-.04.64-.24,1.8-1.22,3.28,1.16-1.78,2.84-3.55,2.44-5.88-.5-2.9-3.43-1.07-4.35-.99-.56.05-6.16-.58-6.18-.99,3.61-1.45,10.69-7.86,11.37-8.01.09-.02.8.37,1.83,0,.19-.07,1.25-1.14,1.83-1.22.35-.05,2.06.45,2.59.31.18-.05,1.82-1.95,1.98-1.98.24-.06.69.91,4.58-1.22.33,1.27,1.72-.66,3.36-1.37.19-.08-.17.54,1.53-.15,1.97-.8,1.63-2.05,2.14-.61,2.41-2.49,2.94-1.73,3.51-1.98,2.97-1.35,2.92-5.04,3.82-2.75,1.77-1.75,2.79-4.5,3.43-3.43,2.42-3.78,5.95-6.78,7.94-10.83l-.53-.08ZM85.73,31.67c1.17-.07,1.77-.04,1.79.08,0,.03-.02.06-.08.1-1.56.3-2.35.38-2.39.25-.02-.07.21-.22.68-.43Z"/>
  </g>
</svg>